name Walk4.mot
datacolumns 19
datarows 30
range 2.06600000 2.09500000
endheader

                time	   L_ground_force_vx	   L_ground_force_vy	   L_ground_force_vz	   L_ground_force_px	   L_ground_force_py	   L_ground_force_pz	   R_ground_force_vx	   R_ground_force_vy	   R_ground_force_vz	   R_ground_force_px	   R_ground_force_py	   R_ground_force_pz	   L_ground_torque_x	   L_ground_torque_y	   L_ground_torque_z	   R_ground_torque_x	   R_ground_torque_y	   R_ground_torque_z	
          2.06600000	         20.29457938	        652.54101881	         36.81570242	         -0.44369110	          0.00000000	         -0.07303162	          0.00000000	          0.00000000	          0.00000000	          0.00000000	          0.00000000	          0.00000000	          0.00000000	          0.41282907	          0.00000000	          0.00000000	          0.00000000	          0.00000000	
          2.06700000	         20.62073896	        654.09198264	         36.89463390	         -0.44336498	          0.00000000	         -0.07305576	          0.00000000	          0.00000000	          0.00000000	          0.00000000	          0.00000000	          0.00000000	          0.00000000	          0.39292945	          0.00000000	          0.00000000	          0.00000000	          0.00000000	
          2.06800000	         20.96954796	        655.74141096	         36.98093519	         -0.44299905	          0.00000000	         -0.07306458	          0.00000000	          0.00000000	          0.00000000	          0.00000000	          0.00000000	          0.00000000	          0.00000000	          0.37247602	          0.00000000	          0.00000000	          0.00000000	          0.00000000	
          2.06900000	         21.34062652	        657.48548314	         37.08003102	         -0.44258745	          0.00000000	         -0.07306237	          0.00000000	          0.00000000	          0.00000000	          0.00000000	          0.00000000	          0.00000000	          0.00000000	          0.35824006	          0.00000000	          0.00000000	          0.00000000	          0.00000000	
          2.07000000	         21.72373042	        659.28587819	         37.19810145	         -0.44214627	          0.00000000	         -0.07304726	          0.00000000	          0.00000000	          0.00000000	          0.00000000	          0.00000000	          0.00000000	          0.00000000	          0.35241270	          0.00000000	          0.00000000	          0.00000000	          0.00000000	
          2.07100000	         22.10719929	        661.10718159	         37.33706705	         -0.44169623	          0.00000000	         -0.07303565	          0.00000000	          0.00000000	          0.00000000	          0.00000000	          0.00000000	          0.00000000	          0.00000000	          0.35525975	          0.00000000	          0.00000000	          0.00000000	          0.00000000	
          2.07200000	         22.48395560	        662.92754017	         37.48884582	         -0.44125269	          0.00000000	         -0.07305063	          0.00000000	          0.00000000	          0.00000000	          0.00000000	          0.00000000	          0.00000000	          0.00000000	          0.36482523	          0.00000000	          0.00000000	          0.00000000	          0.00000000	
          2.07300000	         22.85522163	        664.72003126	         37.63846827	         -0.44082563	          0.00000000	         -0.07310310	          0.00000000	          0.00000000	          0.00000000	          0.00000000	          0.00000000	          0.00000000	          0.00000000	          0.37623918	          0.00000000	          0.00000000	          0.00000000	          0.00000000	
          2.07400000	         23.22879488	        666.45207788	         37.77361337	         -0.44042385	          0.00000000	         -0.07318720	          0.00000000	          0.00000000	          0.00000000	          0.00000000	          0.00000000	          0.00000000	          0.00000000	          0.38440637	          0.00000000	          0.00000000	          0.00000000	          0.00000000	
          2.07500000	         23.61363178	        668.11293713	         37.89070321	         -0.44004839	          0.00000000	         -0.07328566	          0.00000000	          0.00000000	          0.00000000	          0.00000000	          0.00000000	          0.00000000	          0.00000000	          0.38709967	          0.00000000	          0.00000000	          0.00000000	          0.00000000	
          2.07600000	         24.01301555	        669.72203485	         37.99650078	         -0.43968041	          0.00000000	         -0.07337859	          0.00000000	          0.00000000	          0.00000000	          0.00000000	          0.00000000	          0.00000000	          0.00000000	          0.38543310	          0.00000000	          0.00000000	          0.00000000	          0.00000000	
          2.07700000	         24.41759786	        671.31059176	         38.10614953	         -0.43928965	          0.00000000	         -0.07344627	          0.00000000	          0.00000000	          0.00000000	          0.00000000	          0.00000000	          0.00000000	          0.00000000	          0.38298376	          0.00000000	          0.00000000	          0.00000000	          0.00000000	
          2.07800000	         24.80424246	        672.89652463	         38.23214946	         -0.43886176	          0.00000000	         -0.07347920	          0.00000000	          0.00000000	          0.00000000	          0.00000000	          0.00000000	          0.00000000	          0.00000000	          0.38422535	          0.00000000	          0.00000000	          0.00000000	          0.00000000	
          2.07900000	         25.15148864	        674.47111576	         38.37154132	         -0.43841105	          0.00000000	         -0.07349451	          0.00000000	          0.00000000	          0.00000000	          0.00000000	          0.00000000	          0.00000000	          0.00000000	          0.39218107	          0.00000000	          0.00000000	          0.00000000	          0.00000000	
          2.08000000	         25.46211052	        676.02596641	         38.50995952	         -0.43796261	          0.00000000	         -0.07352086	          0.00000000	          0.00000000	          0.00000000	          0.00000000	          0.00000000	          0.00000000	          0.00000000	          0.40653096	          0.00000000	          0.00000000	          0.00000000	          0.00000000	
          2.08100000	         25.76192664	        677.57843590	         38.63957864	         -0.43753314	          0.00000000	         -0.07356983	          0.00000000	          0.00000000	          0.00000000	          0.00000000	          0.00000000	          0.00000000	          0.00000000	          0.42290794	          0.00000000	          0.00000000	          0.00000000	          0.00000000	
          2.08200000	         26.07402206	        679.16168918	         38.76813349	         -0.43712877	          0.00000000	         -0.07363877	          0.00000000	          0.00000000	          0.00000000	          0.00000000	          0.00000000	          0.00000000	          0.00000000	          0.43412360	          0.00000000	          0.00000000	          0.00000000	          0.00000000	
          2.08300000	         26.40146433	        680.80331296	         38.90883263	         -0.43674500	          0.00000000	         -0.07372596	          0.00000000	          0.00000000	          0.00000000	          0.00000000	          0.00000000	          0.00000000	          0.00000000	          0.43403671	          0.00000000	          0.00000000	          0.00000000	          0.00000000	
          2.08400000	         26.73546001	        682.49812466	         39.06280067	         -0.43636608	          0.00000000	         -0.07382771	          0.00000000	          0.00000000	          0.00000000	          0.00000000	          0.00000000	          0.00000000	          0.00000000	          0.42194462	          0.00000000	          0.00000000	          0.00000000	          0.00000000	
          2.08500000	         27.07227747	        684.21540840	         39.21659071	         -0.43597117	          0.00000000	         -0.07392937	          0.00000000	          0.00000000	          0.00000000	          0.00000000	          0.00000000	          0.00000000	          0.00000000	          0.40355847	          0.00000000	          0.00000000	          0.00000000	          0.00000000	
          2.08600000	         27.41542030	        685.94172329	         39.35972177	         -0.43554473	          0.00000000	         -0.07401030	          0.00000000	          0.00000000	          0.00000000	          0.00000000	          0.00000000	          0.00000000	          0.00000000	          0.38754037	          0.00000000	          0.00000000	          0.00000000	          0.00000000	
          2.08700000	         27.76759814	        687.68336584	         39.49525814	         -0.43508169	          0.00000000	         -0.07405805	          0.00000000	          0.00000000	          0.00000000	          0.00000000	          0.00000000	          0.00000000	          0.00000000	          0.38029843	          0.00000000	          0.00000000	          0.00000000	          0.00000000	
          2.08800000	         28.13117212	        689.43674131	         39.62999404	         -0.43458837	          0.00000000	         -0.07407263	          0.00000000	          0.00000000	          0.00000000	          0.00000000	          0.00000000	          0.00000000	          0.00000000	          0.38369417	          0.00000000	          0.00000000	          0.00000000	          0.00000000	
          2.08900000	         28.51066459	        691.18304678	         39.76654589	         -0.43408481	          0.00000000	         -0.07406692	          0.00000000	          0.00000000	          0.00000000	          0.00000000	          0.00000000	          0.00000000	          0.00000000	          0.39727897	          0.00000000	          0.00000000	          0.00000000	          0.00000000	
          2.09000000	         28.90672148	        692.89616732	         39.90492456	         -0.43360083	          0.00000000	         -0.07407150	          0.00000000	          0.00000000	          0.00000000	          0.00000000	          0.00000000	          0.00000000	          0.00000000	          0.42036186	          0.00000000	          0.00000000	          0.00000000	          0.00000000	
          2.09100000	         29.31032917	        694.54462058	         40.04401711	         -0.43316202	          0.00000000	         -0.07412502	          0.00000000	          0.00000000	          0.00000000	          0.00000000	          0.00000000	          0.00000000	          0.00000000	          0.44922516	          0.00000000	          0.00000000	          0.00000000	          0.00000000	
          2.09200000	         29.70493558	        696.10592809	         40.18688185	         -0.43277643	          0.00000000	         -0.07424333	          0.00000000	          0.00000000	          0.00000000	          0.00000000	          0.00000000	          0.00000000	          0.00000000	          0.47352496	          0.00000000	          0.00000000	          0.00000000	          0.00000000	
          2.09300000	         30.07878458	        697.58636877	         40.34285872	         -0.43242845	          0.00000000	         -0.07439811	          0.00000000	          0.00000000	          0.00000000	          0.00000000	          0.00000000	          0.00000000	          0.00000000	          0.48137957	          0.00000000	          0.00000000	          0.00000000	          0.00000000	
          2.09400000	         30.43796176	        699.00650723	         40.51724738	         -0.43207739	          0.00000000	         -0.07454201	          0.00000000	          0.00000000	          0.00000000	          0.00000000	          0.00000000	          0.00000000	          0.00000000	          0.46987642	          0.00000000	          0.00000000	          0.00000000	          0.00000000	
          2.09500000	         30.79976683	        700.37358032	         40.70306606	         -0.43167549	          0.00000000	         -0.07465058	          0.00000000	          0.00000000	          0.00000000	          0.00000000	          0.00000000	          0.00000000	          0.00000000	          0.44720188	          0.00000000	          0.00000000	          0.00000000	          0.00000000	
